# xmcd CD database file
#
# Track frame offsets:
#	150
#	21318
#	34936
#	51191
#	67046
#	84461
#	97364
#	112680
#	124903
#	143746
#	161351
#	179792
#
# Disc length: 2604 seconds
#
# Revision: 3
# Processed by: cddbd v1.5.2PL0 Copyright (c) Steve Scherf et al.
# Submitted via: CDex 2.21
#
DISCID=aa0a2a0c
DTITLE=Shirley Frederickson - Me, Myself and I
DYEAR=2009
DGENRE=Country
TTITLE0=Me, Myself and I
TTITLE1=Girls can drive pick-up Trucks
TTITLE2=Confederate gold
TTITLE3=You're Everything To Me
TTITLE4=Thank You For Me
TTITLE5=Rockin' chair partner
TTITLE6=Soap Vacation
TTITLE7=Fair Enough
TTITLE8=Sister Song
TTITLE9=If I Ever Fall In Love Again
TTITLE10=Just Loving You
TTITLE11=What Do You Want From Me
EXTD=YEAR: 2009
EXTT0=
EXTT1=
EXTT2=
EXTT3=
EXTT4=
EXTT5=
EXTT6=
EXTT7=
EXTT8=
EXTT9=
EXTT10=
EXTT11=
PLAYORDER=
